<svg xmlns="http://www.w3.org/2000/svg" viewBox="0 0 500 400" role="img" aria-label="化新製慧製造HS">
  <defs>
    <filter id="shadow" x="-20%" y="-20%" width="140%" height="140%">
      <feDropShadow dx="0" dy="4" stdDeviation="3" flood-color="#000000" flood-opacity="0.65"/>
    </filter>
    <linearGradient id="pink" x1="0" y1="0" x2="1" y2="1">
      <stop offset="0" stop-color="#ff1493"/>
      <stop offset="1" stop-color="#ff007f"/>
    </linearGradient>
  </defs>
  <rect width="500" height="400" fill="transparent"/>
  <g filter="url(#shadow)">
    <circle cx="250" cy="200" r="185" fill="none" stroke="#2a2a2a" stroke-width="18"/>
    <circle cx="250" cy="200" r="176" fill="none" stroke="url(#pink)" stroke-width="10"/>
    <path d="M250 38
      C292 38 283 92 306 114
      C329 137 424 115 430 171
      C437 232 353 216 329 251
      C304 287 316 356 250 357
      C184 356 196 287 171 251
      C147 216 63 232 70 171
      C76 115 171 137 194 114
      C217 92 208 38 250 38Z"
      fill="#2a2a2a"/>
    <path d="M250 46
      C287 46 280 95 301 119
      C323 144 414 122 421 174
      C428 226 346 213 323 247
      C300 282 312 346 250 348
      C188 346 200 282 177 247
      C154 213 72 226 79 174
      C86 122 177 144 199 119
      C220 95 213 46 250 46Z"
      fill="url(#pink)"/>
    <path d="M250 91
      C269 91 270 123 283 137
      C299 155 357 145 365 171
      C372 196 307 185 291 209
      C277 231 282 287 250 288
      C218 287 223 231 209 209
      C193 185 128 196 135 171
      C143 145 201 155 217 137
      C230 123 231 91 250 91Z"
      fill="#050505"/>
    <rect x="193" y="130" width="114" height="82" rx="29" fill="#2a2a2a"/>
    <rect x="198" y="136" width="104" height="72" rx="25" fill="url(#pink)"/>
  </g>
</svg>
