<svg xmlns="http://www.w3.org/2000/svg" width="1024" height="1024" viewBox="0 0 1024 1024" role="img" aria-label="化新報工">
  <defs>
    <linearGradient id="bg" x1="0" y1="0" x2="1" y2="1"><stop offset="0" stop-color="#071126"/><stop offset="0.45" stop-color="#0b2a5c"/><stop offset="1" stop-color="#050914"/></linearGradient>
    <linearGradient id="gold" x1="0" y1="0" x2="1" y2="1"><stop offset="0" stop-color="#fff0ad"/><stop offset="0.42" stop-color="#f7c84e"/><stop offset="1" stop-color="#b77913"/></linearGradient>
    <linearGradient id="blue" x1="0" y1="0" x2="1" y2="1"><stop offset="0" stop-color="#7cc6ff"/><stop offset="0.45" stop-color="#2684ff"/><stop offset="1" stop-color="#0a2c68"/></linearGradient>
    <filter id="glow" x="-40%" y="-40%" width="180%" height="180%"><feGaussianBlur stdDeviation="10" result="b"/><feColorMatrix in="b" type="matrix" values="0 0 0 0 0.15  0 0 0 0 0.52  0 0 0 0 1  0 0 0 .72 0"/><feMerge><feMergeNode/><feMergeNode in="SourceGraphic"/></feMerge></filter>
    <filter id="shadow" x="-30%" y="-30%" width="160%" height="160%"><feDropShadow dx="0" dy="22" stdDeviation="22" flood-color="#000" flood-opacity=".48"/></filter>
  </defs>
  <rect width="1024" height="1024" rx="222" fill="url(#bg)"/>
  <rect x="38" y="38" width="948" height="948" rx="190" fill="none" stroke="#55a4ff" stroke-width="8" opacity=".55"/>
  <circle cx="512" cy="398" r="305" fill="none" stroke="#238dff" stroke-width="9" opacity=".48" filter="url(#glow)"/>
  <path d="M150 648H874" stroke="#278cff" stroke-width="8" opacity=".85" filter="url(#glow)"/>
  <g opacity=".55">
    <path d="M188 418h92m-46-46v92m-46-18 92-56m-92 56 92 48" stroke="#35a7ff" stroke-width="7" stroke-linecap="round"/>
    <circle cx="188" cy="418" r="13" fill="#4cc3ff"/><circle cx="280" cy="418" r="13" fill="#4cc3ff"/><circle cx="234" cy="372" r="12" fill="#1d7cff"/><circle cx="234" cy="464" r="12" fill="#1d7cff"/>
  </g>
  <g transform="translate(0,6)" filter="url(#shadow)">
    <path d="M237 610V392h84v218z" fill="#10284e" stroke="url(#gold)" stroke-width="14"/>
    <path d="M254 365h50v34h-50z" fill="url(#gold)"/>
    <path d="M372 615V444l202-96v267z" fill="url(#gold)" stroke="#ffe8a0" stroke-width="8"/>
    <path d="M574 470l170 72v73H574z" fill="#0d254e" stroke="url(#gold)" stroke-width="8"/>
    <path d="M740 405c0-36 54-36 54 0v198h-54z" fill="url(#gold)"/>
    <path d="M790 405h44v198" fill="none" stroke="url(#gold)" stroke-width="18" stroke-linecap="round"/>
    <rect x="414" y="494" width="44" height="44" rx="5" fill="#08111f"/><rect x="486" y="494" width="44" height="44" rx="5" fill="#08111f"/><rect x="646" y="563" width="38" height="38" rx="5" fill="#f8ca54"/><rect x="712" y="563" width="38" height="38" rx="5" fill="#f8ca54"/>
  </g>
  <g opacity=".55">
    <rect x="430" y="220" width="16" height="154" fill="#176bda"/><rect x="462" y="265" width="16" height="109" fill="#2796ff"/><rect x="494" y="185" width="16" height="189" fill="#176bda"/><rect x="526" y="248" width="16" height="126" fill="#2796ff"/><rect x="558" y="222" width="16" height="152" fill="#176bda"/><rect x="590" y="277" width="16" height="97" fill="#2796ff"/>
  </g>
  <text x="512" y="805" text-anchor="middle" font-family="Noto Sans TC, Microsoft JhengHei, Arial, sans-serif" font-size="142" font-weight="1000" letter-spacing="-8" fill="#f7faff" stroke="#0a1530" stroke-width="8" paint-order="stroke">化新報工</text>
  <text x="512" y="878" text-anchor="middle" font-family="Noto Sans TC, Microsoft JhengHei, Arial, sans-serif" font-size="38" font-weight="800" fill="#9fc7ff">製造部｜報工作業 V4</text>
</svg>
